<svg width="48" height="48" viewBox="0 0 48 48" fill="none" xmlns="http://www.w3.org/2000/svg">
<path fill-rule="evenodd" clip-rule="evenodd" d="M44.9362 24C44.9362 35.5627 35.5627 44.9362 24 44.9362C12.4373 44.9362 3.06383 35.5627 3.06383 24C3.06383 12.4373 12.4373 3.06383 24 3.06383C35.5627 3.06383 44.9362 12.4373 44.9362 24ZM48 24C48 37.2548 37.2548 48 24 48C10.7452 48 0 37.2548 0 24C0 10.7452 10.7452 0 24 0C37.2548 0 48 10.7452 48 24ZM36.6763 11.0986C26.9298 14.8169 7.14389 22.3774 5.97206 22.8732L14.0847 26.2535L17.4087 36.2253L23.1552 31.0986L31.2678 37.0704L36.6763 11.0986ZM17.7466 34.2533L15.155 25.4646L31.9438 15.3801L18.479 27.8871L17.7466 34.2533Z" fill="#FBEDDA"/>
</svg>
