<svg width="48" height="48" viewBox="0 0 48 48" fill="none" xmlns="http://www.w3.org/2000/svg">
<path fill-rule="evenodd" clip-rule="evenodd" d="M24.434 -1.20799e-06C11.4218 -1.20799e-06 0.871214 10.4684 0.871214 23.3817C0.871214 27.8003 2.10792 31.9304 4.25364 35.4556L0 48L13.0453 43.8558C16.4214 45.7075 20.3033 46.7642 24.434 46.7642C37.4502 46.7642 48 36.2951 48 23.3817C48 10.4684 37.4502 -1.20799e-06 24.434 -1.20799e-06ZM24.434 42.8467C20.4514 42.8467 16.7404 41.661 13.6432 39.628L6.10477 42.0228L8.55455 34.7943C6.20638 31.5857 4.82001 27.6432 4.82001 23.3817C4.82001 12.6476 13.6195 3.91674 24.434 3.91674C35.2517 3.91674 44.0504 12.6476 44.0504 23.3817C44.0504 34.1143 35.2517 42.8467 24.434 42.8467ZM35.4833 28.6945C34.8925 28.374 31.9906 26.8201 31.447 26.6005C30.9035 26.3809 30.5057 26.2667 30.0811 26.8498C29.6589 27.4306 28.4537 28.732 28.0906 29.1173C27.7235 29.5035 27.3714 29.5394 26.7791 29.2182C26.1914 28.8969 24.2757 28.1942 22.0551 26.076C20.3269 24.4275 19.1934 22.4289 18.8657 21.8185C18.5349 21.208 18.8633 20.8969 19.1753 20.6116C19.4565 20.3521 19.8039 19.9347 20.1182 19.5986C20.4301 19.2618 20.5404 19.0163 20.7554 18.6255C20.9712 18.2355 20.8838 17.8837 20.7444 17.5789C20.6057 17.2748 19.5132 14.2937 19.0579 13.0798C18.6018 11.8675 18.0937 12.0465 17.7424 12.0332C17.3919 12.0215 16.9925 11.9566 16.5924 11.941C16.1898 11.9261 15.5329 12.0512 14.9602 12.628C14.386 13.2041 12.7767 14.5899 12.6664 17.5281C12.5546 20.4639 14.6034 23.3817 14.8893 23.7897C15.1745 24.2001 18.7987 30.5657 24.8216 33.1834C30.8476 35.8011 30.8799 35.0038 31.9842 34.9444C33.091 34.8866 35.5967 33.6313 36.152 32.2579C36.7058 30.8831 36.7507 29.6887 36.6097 29.4347C36.4687 29.1799 36.0725 29.0149 35.4833 28.6945Z" fill="#FBEDDA"/>
</svg>
